<svg width="20" height="21" viewBox="0 0 20 21" fill="none" xmlns="http://www.w3.org/2000/svg">
<g clip-path="url(#clip0_1604_117)">
<path d="M0.984375 10.5C1.76771 6.23333 5.50687 3 10.0002 3C14.4935 3 18.2319 6.23333 19.016 10.5C18.2327 14.7667 14.4935 18 10.0002 18C5.50687 18 1.76854 14.7667 0.984375 10.5V10.5ZM10.0002 14.6667C11.1053 14.6667 12.1651 14.2277 12.9465 13.4463C13.7279 12.6649 14.1669 11.6051 14.1669 10.5C14.1669 9.39493 13.7279 8.33512 12.9465 7.55372C12.1651 6.77232 11.1053 6.33333 10.0002 6.33333C8.89514 6.33333 7.83533 6.77232 7.05393 7.55372C6.27253 8.33512 5.83354 9.39493 5.83354 10.5C5.83354 11.6051 6.27253 12.6649 7.05393 13.4463C7.83533 14.2277 8.89514 14.6667 10.0002 14.6667ZM10.0002 13C9.33717 13 8.70128 12.7366 8.23244 12.2678C7.7636 11.7989 7.50021 11.163 7.50021 10.5C7.50021 9.83696 7.7636 9.20107 8.23244 8.73223C8.70128 8.26339 9.33717 8 10.0002 8C10.6632 8 11.2991 8.26339 11.768 8.73223C12.2368 9.20107 12.5002 9.83696 12.5002 10.5C12.5002 11.163 12.2368 11.7989 11.768 12.2678C11.2991 12.7366 10.6632 13 10.0002 13Z" fill="white"/>
</g>
<defs>
<clipPath id="clip0_1604_117">
<rect width="20" height="20" fill="white" transform="translate(0 0.5)"/>
</clipPath>
</defs>
</svg>
