<svg width="20" height="21" viewBox="0 0 20 21" fill="none" xmlns="http://www.w3.org/2000/svg">
<g clip-path="url(#clip0_1604_117)">
<path d="M9.99984 8.00002C9.3368 8.00002 8.70091 8.26341 8.23207 8.73225C7.76323 9.20109 7.49984 9.83698 7.49984 10.5C7.49984 11.1631 7.76323 11.7989 8.23207 12.2678C8.70091 12.7366 9.3368 13 9.99984 13C10.6629 13 11.2988 12.7366 11.7676 12.2678C12.2364 11.7989 12.4998 11.1631 12.4998 10.5C12.4998 9.83698 12.2364 9.20109 11.7676 8.73225C11.2988 8.26341 10.6629 8.00002 9.99984 8.00002ZM9.99984 6.33335C11.1049 6.33335 12.1647 6.77234 12.9461 7.55374C13.7275 8.33514 14.1665 9.39495 14.1665 10.5C14.1665 11.6051 13.7275 12.6649 12.9461 13.4463C12.1647 14.2277 11.1049 14.6667 9.99984 14.6667C8.89477 14.6667 7.83496 14.2277 7.05356 13.4463C6.27216 12.6649 5.83317 11.6051 5.83317 10.5C5.83317 9.39495 6.27216 8.33514 7.05356 7.55374C7.83496 6.77234 8.89477 6.33335 9.99984 6.33335V6.33335ZM15.4165 6.12502C15.4165 6.40129 15.3068 6.66624 15.1114 6.86159C14.9161 7.05694 14.6511 7.16669 14.3748 7.16669C14.0986 7.16669 13.8336 7.05694 13.6383 6.86159C13.4429 6.66624 13.3332 6.40129 13.3332 6.12502C13.3332 5.84875 13.4429 5.5838 13.6383 5.38845C13.8336 5.1931 14.0986 5.08335 14.3748 5.08335C14.6511 5.08335 14.9161 5.1931 15.1114 5.38845C15.3068 5.5838 15.4165 5.84875 15.4165 6.12502V6.12502ZM9.99984 3.83335C7.93817 3.83335 7.6015 3.83919 6.64234 3.88169C5.989 3.91252 5.55067 4.00002 5.144 4.15835C4.78234 4.29835 4.5215 4.46585 4.244 4.74419C3.98318 4.99619 3.78263 5.30384 3.65734 5.64419C3.499 6.05252 3.4115 6.49002 3.3815 7.14252C3.33817 8.06252 3.33317 8.38419 3.33317 10.5C3.33317 12.5617 3.339 12.8984 3.3815 13.8575C3.41234 14.51 3.49984 14.9492 3.65734 15.355C3.799 15.7175 3.96567 15.9784 4.24234 16.255C4.52317 16.535 4.784 16.7025 5.14234 16.8409C5.554 17 5.99234 17.0884 6.64234 17.1184C7.56234 17.1617 7.884 17.1667 9.99984 17.1667C12.0615 17.1667 12.3982 17.1609 13.3573 17.1184C14.009 17.0875 14.4482 17 14.8548 16.8425C15.2157 16.7017 15.4782 16.5342 15.7548 16.2575C16.0357 15.9767 16.2032 15.7159 16.3415 15.3575C16.4998 14.9467 16.5882 14.5075 16.6182 13.8575C16.6615 12.9375 16.6665 12.6159 16.6665 10.5C16.6665 8.43835 16.6607 8.10169 16.6182 7.14252C16.5873 6.49085 16.4998 6.05085 16.3415 5.64419C16.2159 5.30419 16.0157 4.99665 15.7557 4.74419C15.5038 4.48323 15.1961 4.28266 14.8557 4.15752C14.4473 3.99919 14.009 3.91169 13.3573 3.88169C12.4373 3.83835 12.1157 3.83335 9.99984 3.83335ZM9.99984 2.16669C12.264 2.16669 12.5465 2.17502 13.4348 2.21669C14.3223 2.25835 14.9265 2.39752 15.4582 2.60419C16.0082 2.81585 16.4715 3.10252 16.9348 3.56502C17.3586 3.9816 17.6865 4.48551 17.8957 5.04169C18.1015 5.57252 18.2415 6.17752 18.2832 7.06502C18.3223 7.95335 18.3332 8.23585 18.3332 10.5C18.3332 12.7642 18.3248 13.0467 18.2832 13.935C18.2415 14.8225 18.1015 15.4267 17.8957 15.9584C17.6871 16.5148 17.3591 17.0189 16.9348 17.435C16.5181 17.8586 16.0143 18.1865 15.4582 18.3959C14.9273 18.6017 14.3223 18.7417 13.4348 18.7834C12.5465 18.8225 12.264 18.8334 9.99984 18.8334C7.73567 18.8334 7.45317 18.825 6.56484 18.7834C5.67734 18.7417 5.07317 18.6017 4.5415 18.3959C3.98511 18.1871 3.48111 17.8591 3.06484 17.435C2.64101 17.0185 2.31311 16.5146 2.104 15.9584C1.89734 15.4275 1.75817 14.8225 1.7165 13.935C1.67734 13.0467 1.6665 12.7642 1.6665 10.5C1.6665 8.23585 1.67484 7.95335 1.7165 7.06502C1.75817 6.17669 1.89734 5.57335 2.104 5.04169C2.31253 4.48517 2.64051 3.98112 3.06484 3.56502C3.48123 3.14105 3.98519 2.81313 4.5415 2.60419C5.07317 2.39752 5.6765 2.25835 6.56484 2.21669C7.45317 2.17752 7.73567 2.16669 9.99984 2.16669Z" fill="white"/>
</g>
<defs>
<clipPath id="clip0_1604_117">
<rect width="20" height="20" fill="white" transform="translate(0 0.5)"/>
</clipPath>
</defs>
</svg>
