<svg width="20" height="21" viewBox="0 0 20 21" fill="none" xmlns="http://www.w3.org/2000/svg">
<g clip-path="url(#clip0_1604_117)">
<path d="M8.44165 13.7017L7.78498 16.1516L6.17581 15.72L6.83165 13.2708C5.84995 12.9088 4.93758 12.3811 4.13415 11.7108L2.33998 13.5058L1.16081 12.3267L2.95581 10.5325C1.94254 9.31895 1.26172 7.86312 0.97998 6.30748L1.72998 6.16998C4.13767 7.90596 7.03172 8.83799 9.99998 8.83332C13.0866 8.83332 15.9425 7.84582 18.27 6.16998L19.02 6.30665C18.7386 7.8625 18.0581 9.31862 17.045 10.5325L18.8391 12.3267L17.66 13.5058L15.8658 11.7108C15.0624 12.3811 14.15 12.9088 13.1683 13.2708L13.8241 15.7208L12.215 16.1516L11.5583 13.7017C10.5269 13.8784 9.47302 13.8784 8.44165 13.7017V13.7017Z" fill="white"/>
</g>
<defs>
<clipPath id="clip0_1604_117">
<rect width="20" height="20" fill="white" transform="translate(0 0.5)"/>
</clipPath>
</defs>
</svg>
