<svg width="20" height="21" viewBox="0 0 20 21" fill="none" xmlns="http://www.w3.org/2000/svg">
<g clip-path="url(#clip0_1604_117)">
<path d="M11.6667 16.3333H15.8333V4.66667H4.16667V16.3333H10V12.1667H8.33333V10.5H10V9.12167C10 8.0075 10.1167 7.60333 10.3333 7.19583C10.5468 6.79265 10.8766 6.46307 11.28 6.25C11.5983 6.07917 11.9942 5.97667 12.6858 5.9325C12.96 5.915 13.315 5.93667 13.7508 5.99917V7.5825H13.3333C12.5692 7.5825 12.2533 7.61833 12.065 7.71917C11.9526 7.77696 11.8611 7.86846 11.8033 7.98083C11.7033 8.16917 11.6667 8.35583 11.6667 9.12083V10.5H13.75L13.3333 12.1667H11.6667V16.3333ZM3.33333 3H16.6667C16.8877 3 17.0996 3.0878 17.2559 3.24408C17.4122 3.40036 17.5 3.61232 17.5 3.83333V17.1667C17.5 17.3877 17.4122 17.5996 17.2559 17.7559C17.0996 17.9122 16.8877 18 16.6667 18H3.33333C3.11232 18 2.90036 17.9122 2.74408 17.7559C2.5878 17.5996 2.5 17.3877 2.5 17.1667V3.83333C2.5 3.61232 2.5878 3.40036 2.74408 3.24408C2.90036 3.0878 3.11232 3 3.33333 3V3Z" fill="white"/>
</g>
<defs>
<clipPath id="clip0_1604_117">
<rect width="20" height="20" fill="white" transform="translate(0 0.5)"/>
</clipPath>
</defs>
</svg>
