<svg width="20" height="21" viewBox="0 0 20 21" fill="none" xmlns="http://www.w3.org/2000/svg">
<g clip-path="url(#clip0_1604_117)">
<path d="M6.04402 15.9117L6.64735 16.2642C7.6648 16.8576 8.82201 17.1691 9.99985 17.1667C11.3184 17.1667 12.6073 16.7757 13.7037 16.0432C14.8 15.3106 15.6545 14.2694 16.159 13.0512C16.6636 11.8331 16.7957 10.4926 16.5384 9.19942C16.2812 7.90621 15.6462 6.71833 14.7139 5.78598C13.7815 4.85363 12.5937 4.21869 11.3005 3.96145C10.0072 3.70422 8.6668 3.83624 7.44863 4.34082C6.23045 4.84541 5.18926 5.69989 4.45672 6.79622C3.72418 7.89255 3.33318 9.18148 3.33318 10.5C3.33318 11.6967 3.64735 12.8442 4.23652 13.8534L4.58818 14.4567L4.04402 16.4575L6.04402 15.9117ZM1.66985 18.8334L2.79652 14.6934C2.05413 13.4207 1.6641 11.9733 1.66652 10.5C1.66652 5.89752 5.39735 2.16669 9.99985 2.16669C14.6023 2.16669 18.3332 5.89752 18.3332 10.5C18.3332 15.1025 14.6023 18.8334 9.99985 18.8334C8.52716 18.8357 7.0804 18.446 5.80818 17.7042L1.66985 18.8334ZM6.99235 6.59002C7.10402 6.58169 7.21652 6.58169 7.32818 6.58669C7.37318 6.59002 7.41818 6.59502 7.46318 6.60002C7.59568 6.61502 7.74152 6.69585 7.79068 6.80752C8.03902 7.37085 8.28068 7.93835 8.51402 8.50752C8.56568 8.63419 8.53485 8.79669 8.43652 8.95502C8.36889 9.06209 8.29573 9.16556 8.21735 9.26502C8.12318 9.38585 7.92068 9.60752 7.92068 9.60752C7.92068 9.60752 7.83818 9.70585 7.86985 9.82835C7.88152 9.87502 7.91985 9.94252 7.95485 9.99919L8.00402 10.0784C8.21735 10.4342 8.50402 10.795 8.85402 11.135C8.95402 11.2317 9.05152 11.3309 9.15652 11.4234C9.54652 11.7675 9.98818 12.0484 10.4648 12.2567L10.469 12.2584C10.5398 12.2892 10.5757 12.3059 10.679 12.35C10.7307 12.3717 10.784 12.3909 10.8382 12.405C10.8942 12.4193 10.9531 12.4166 11.0076 12.3973C11.062 12.378 11.1095 12.343 11.144 12.2967C11.7473 11.5659 11.8023 11.5184 11.8073 11.5184V11.52C11.8493 11.4809 11.8991 11.4513 11.9534 11.433C12.0077 11.4147 12.0653 11.4083 12.1223 11.4142C12.1723 11.4175 12.2232 11.4267 12.2698 11.4475C12.7123 11.65 13.4365 11.9659 13.4365 11.9659L13.9215 12.1834C14.0032 12.2225 14.0773 12.315 14.0798 12.4042C14.0832 12.46 14.0882 12.55 14.069 12.715C14.0423 12.9309 13.9773 13.19 13.9123 13.3259C13.8678 13.4186 13.8088 13.5035 13.7374 13.5775C13.6533 13.6658 13.5612 13.7462 13.4624 13.8175C13.4282 13.8432 13.3934 13.8682 13.3582 13.8925C13.2545 13.9583 13.148 14.0195 13.039 14.0759C12.8245 14.1898 12.5875 14.2552 12.3448 14.2675C12.1907 14.2759 12.0365 14.2875 11.8815 14.2792C11.8748 14.2792 11.4082 14.2067 11.4082 14.2067C10.2234 13.8951 9.12767 13.3112 8.20818 12.5017C8.01985 12.3359 7.84568 12.1575 7.66735 11.98C6.92568 11.2425 6.36568 10.4467 6.02568 9.69502C5.85166 9.32609 5.75765 8.92452 5.74985 8.51669C5.74641 8.01073 5.9118 7.51808 6.21985 7.11669C6.28068 7.03835 6.33818 6.95669 6.43735 6.86252C6.54318 6.76252 6.60985 6.70919 6.68235 6.67252C6.77874 6.62421 6.8839 6.59587 6.99152 6.58919L6.99235 6.59002Z" fill="white"/>
</g>
<defs>
<clipPath id="clip0_1604_117">
<rect width="20" height="20" fill="white" transform="translate(0 0.5)"/>
</clipPath>
</defs>
</svg>
